<?xml version="1.0" encoding="utf-8"?>
<!-- Generator: Adobe Illustrator 18.0.0, SVG Export Plug-In . SVG Version: 6.00 Build 0)  -->
<!DOCTYPE svg PUBLIC "-//W3C//DTD SVG 1.1//EN" "http://www.w3.org/Graphics/SVG/1.1/DTD/svg11.dtd">
<svg version="1.1" id="Layer_1" xmlns="http://www.w3.org/2000/svg" xmlns:xlink="http://www.w3.org/1999/xlink" x="0px" y="0px"
	 viewBox="0 0 120 120" enable-background="new 0 0 120 120" xml:space="preserve">
<path fill="#FF8800" d="M111.4,24c1.2,0,2.4,0.2,3.4,0.7c1.1,0.5,1.9,1.2,2.7,1.9c0.7,0.8,1.3,1.8,1.8,2.9c0.5,1.1,0.7,2.3,0.7,3.4
	V87c0,1.2-0.2,2.3-0.6,3.4c-0.5,1.1-1.1,2.1-1.8,2.8c-0.7,0.8-1.7,1.5-2.7,1.9c-1.1,0.5-2.2,0.7-3.4,0.7H8.6c-1.2,0-2.4-0.2-3.4-0.7
	c-1.1-0.5-1.9-1.2-2.7-1.9c-0.7-0.8-1.3-1.8-1.8-2.8C0.2,89.3,0,88.2,0,87V33c0-1.2,0.2-2.3,0.6-3.4c0.5-1.1,1.1-2.1,1.8-2.9
	c0.7-0.7,1.7-1.5,2.7-1.9c1-0.5,2.2-0.7,3.5-0.7H111.4z M112,33c0-0.5-0.2-0.8-0.6-1H8.6C8.2,32.2,8,32.5,8,33V87
	c0,0.5,0.2,0.8,0.6,1h102.8c0.4-0.2,0.6-0.5,0.6-1V33z M24,48h-8v-8h8V48z M16,56h16v8H16V56z M16,72h16v8H16V72z M40,48h-8v-8h8V48
	z M40,56h8v8h-8V56z M40,72h40v8H40V72z M56,48h-8v-8h8V48z M56,56h8v8h-8V56z M72,48h-8v-8h8V48z M72,56h8v8h-8V56z M88,48h-8v-8h8
	V48z M88,56h16v8H88V56z M88,72h16v8H88V72z M96,40h8v8h-8V40z"/>
</svg>
